# xmcd
#
# Track frame offsets:
#	150
#	16151
#	27885
#	31827
#	43314
#	60485
#	76708
#	98198
#	109935
#	124877
#	140599
#
# Disc length: 2050 seconds
#
# Revision: 0
# Processed by: cddbd v1.5.1PL0 Copyright (c) Steve Scherf et al.
# Submitted via: dBpowerAMP V4.0
#
DISCID=8808000b
DTITLE=Garth Brooks - Beyond the season
DYEAR=1900
DGENRE=Country
TTITLE0=Go tell it on the mountian
TTITLE1=God rest ye merry gentleman
TTITLE2=Mary`s dream
TTITLE3=Santa looked alot like daddy
TTITLE4=Silent night
TTITLE5=The friendly beasts
TTITLE6=The gift
TTITLE7=The old man`s back in toen
TTITLE8=Unto you this night
TTITLE9=What child is this
TTITLE10=White christmas
EXTD=Album. Garth Brrooks - Beyond the season
EXTT0=
EXTT1=
EXTT2=
EXTT3=
EXTT4=
EXTT5=
EXTT6=
EXTT7=
EXTT8=
EXTT9=
EXTT10=
PLAYORDER=
